<svg xmlns="http://www.w3.org/2000/svg" width="560" height="360" viewBox="0 0 560 360" fill="none" aria-hidden="true">
  <defs>
    <linearGradient id="olg" x1="72" y1="80" x2="320" y2="200">
      <stop stop-color="#0078d7"/>
      <stop offset="1" stop-color="#28a8ea"/>
    </linearGradient>
    <filter id="olf" x="-15%" y="-15%" width="130%" height="130%">
      <feGaussianBlur stdDeviation="12"/>
    </filter>
  </defs>
  <rect width="560" height="360" rx="18" fill="#0f1018"/>
  <rect x="260" y="56" width="240" height="248" rx="14" fill="rgba(0,120,215,0.08)" filter="url(#olf)"/>
  <rect x="72" y="72" width="200" height="216" rx="14" fill="rgba(255,255,255,0.035)" stroke="rgba(255,255,255,0.1)" stroke-width="1"/>
  <rect x="88" y="94" width="56" height="10" rx="2" fill="rgba(255,255,255,0.14)"/>
  <rect x="88" y="114" width="168" height="8" rx="2" fill="rgba(255,255,255,0.07)"/>
  <rect x="88" y="130" width="140" height="8" rx="2" fill="rgba(255,255,255,0.06)"/>
  <rect x="88" y="162" width="168" height="100" rx="10" fill="url(#olg)" opacity="0.35"/>
  <path d="M104 178h72l36 28-36 28h-72v-56z" fill="rgba(255,255,255,0.2)" stroke="rgba(255,255,255,0.35)" stroke-width="1"/>
  <rect x="100" y="236" width="150" height="8" rx="2" fill="rgba(255,255,255,0.1)"/>
  <rect x="100" y="250" width="120" height="8" rx="2" fill="rgba(255,255,255,0.07)"/>
  <rect x="292" y="88" width="192" height="184" rx="12" fill="rgba(255,255,255,0.04)" stroke="rgba(255,255,255,0.08)" stroke-width="1"/>
  <rect x="308" y="104" width="80" height="8" rx="2" fill="rgba(255,255,255,0.12)"/>
  <g opacity="0.9">
    <rect x="308" y="128" width="24" height="20" rx="3" fill="rgba(0,120,215,0.35)"/>
    <rect x="338" y="128" width="24" height="20" rx="3" fill="rgba(255,255,255,0.06)"/>
    <rect x="368" y="128" width="24" height="20" rx="3" fill="rgba(255,255,255,0.05)"/>
    <rect x="398" y="128" width="24" height="20" rx="3" fill="rgba(255,255,255,0.05)"/>
    <rect x="308" y="154" width="24" height="20" rx="3" fill="rgba(255,255,255,0.06)"/>
    <rect x="338" y="154" width="24" height="20" rx="3" fill="rgba(0,120,215,0.22)"/>
    <rect x="368" y="154" width="24" height="20" rx="3" fill="rgba(255,255,255,0.05)"/>
    <rect x="398" y="154" width="24" height="20" rx="3" fill="rgba(255,255,255,0.05)"/>
    <rect x="308" y="180" width="24" height="20" rx="3" fill="rgba(255,255,255,0.05)"/>
    <rect x="338" y="180" width="24" height="20" rx="3" fill="rgba(255,255,255,0.05)"/>
    <rect x="368" y="180" width="24" height="20" rx="3" fill="rgba(255,255,255,0.05)"/>
    <rect x="398" y="180" width="24" height="20" rx="3" fill="rgba(255,255,255,0.05)"/>
  </g>
  <circle cx="420" cy="240" r="3" fill="#5eb8ff" opacity="0.9"/>
</svg>
