<svg xmlns="http://www.w3.org/2000/svg" width="560" height="360" viewBox="0 0 560 360" fill="none" aria-hidden="true">
  <defs>
    <linearGradient id="odg" x1="80" y1="120" x2="480" y2="260">
      <stop stop-color="#0078d7"/>
      <stop offset="1" stop-color="#00a4ef"/>
    </linearGradient>
    <filter id="odf" x="-25%" y="-25%" width="150%" height="150%">
      <feGaussianBlur stdDeviation="18"/>
    </filter>
  </defs>
  <rect width="560" height="360" rx="18" fill="#0f1018"/>
  <ellipse cx="280" cy="100" rx="200" ry="80" fill="rgba(0,164,239,0.18)" filter="url(#odf)"/>
  <path d="M140 200c0-44 36-80 80-80 26 0 49 13 62 33 14-24 40-40 69-40 45 0 81 36 81 81 0 3 0 6-1 9h-291c-1-1-1-2-1-3z" fill="url(#odg)" opacity="0.85"/>
  <path d="M175 205c0-38 32-69 71-69 23 0 44 11 57 28 12-18 32-30 55-30 36 0 65 29 65 65 0 2 0 4-1 6h-247z" fill="#38bdf8" opacity="0.5"/>
  <rect x="72" y="228" width="416" height="96" rx="14" fill="rgba(255,255,255,0.04)" stroke="rgba(255,255,255,0.1)" stroke-width="1"/>
  <rect x="92" y="248" width="120" height="14" rx="4" fill="rgba(255,255,255,0.12)"/>
  <rect x="92" y="270" width="200" height="10" rx="3" fill="rgba(255,255,255,0.07)"/>
  <rect x="92" y="286" width="160" height="10" rx="3" fill="rgba(255,255,255,0.06)"/>
  <g transform="translate(380 244)">
    <circle r="22" fill="none" stroke="rgba(0,164,239,0.6)" stroke-width="2.5"/>
    <path d="M0-9v8l6 4" stroke="rgba(255,255,255,0.85)" stroke-width="2" stroke-linecap="round" fill="none"/>
    <path d="M22 0A22 22 0 0 1-22 0" stroke="rgba(0,164,239,0.45)" stroke-width="2" fill="none"/>
  </g>
  <rect x="100" y="160" width="48" height="56" rx="6" fill="rgba(255,255,255,0.08)" stroke="rgba(0,164,239,0.35)" stroke-width="1"/>
  <rect x="160" y="168" width="48" height="48" rx="6" fill="rgba(255,255,255,0.06)" stroke="rgba(255,255,255,0.12)" stroke-width="1"/>
  <rect x="220" y="172" width="48" height="44" rx="6" fill="rgba(255,255,255,0.05)" stroke="rgba(255,255,255,0.1)" stroke-width="1"/>
</svg>
